<?xml version="1.0" encoding="UTF-8"?>
<!DOCTYPE svg PUBLIC "-//W3C//DTD SVG 1.1//EN" "http://www.w3.org/Graphics/SVG/1.1/DTD/svg11.dtd">
<!-- Creator: CorelDRAW 2021 (64-Bit) -->
<svg xmlns="http://www.w3.org/2000/svg" xml:space="preserve" width="3.31587in" height="1.89852in" version="1.1" style="shape-rendering:geometricPrecision; text-rendering:geometricPrecision; image-rendering:optimizeQuality; fill-rule:evenodd; clip-rule:evenodd"
viewBox="0 0 630.71 361.12"
 xmlns:xlink="http://www.w3.org/1999/xlink"
 xmlns:xodm="http://www.corel.com/coreldraw/odm/2003">
 <defs>
  <style type="text/css">
   <![CDATA[
    .fil2 {fill:#24D0DF}
    .fil5 {fill:#2E2AA3}
    .fil4 {fill:#5B22AF}
    .fil1 {fill:#6C6ED3}
    .fil0 {fill:#8717B8}
    .fil3 {fill:#B50EC6}
   ]]>
  </style>
 </defs>
 <g id="Layer_x0020_1">
  <metadata id="CorelCorpID_0Corel-Layer"/>
  <g id="_1891828229056">
   <polygon class="fil0" points="306.3,176.24 207.69,177.73 109.08,179.22 157.09,93.08 205.1,6.94 255.7,91.59 "/>
   <polygon class="fil1" points="524.61,177.15 426.01,178.65 327.4,180.14 375.41,94 423.42,7.86 474.02,92.51 "/>
   <polygon class="fil2" points="531.18,171.34 482.33,85.67 433.48,0 532.1,0.53 630.71,1.06 580.95,86.2 "/>
   <polygon class="fil3" points="422.74,361.12 373.89,275.45 325.03,189.78 423.65,190.31 522.27,190.84 472.5,275.98 "/>
   <polygon class="fil4" points="205.84,359.52 156.99,273.86 108.14,188.19 206.76,188.72 305.37,189.24 255.61,274.39 "/>
   <polygon class="fil5" points="97.7,172.13 48.85,86.47 -0,0.8 98.62,1.33 197.23,1.85 147.47,86.99 "/>
  </g>
 </g>
</svg>
